<svg enable-background="new 0 0 512 512" viewBox="0 0 512 512" xmlns="http://www.w3.org/2000/svg" fill="#110B03"><g id="_x31_8_Map_Legend"><g><path stroke="#110B03" stroke-width="6" d="m92.1 24.124c-4.681 0-8.809 2.64-10.777 6.89l-53.939 116.716c-2.183 4.718-1.071 10.243 2.768 13.747 3.839 3.502 9.442 4.111 13.947 1.513l48.001-27.749 48.001 27.747c4.474 2.592 10.089 2.012 13.938-1.506 3.843-3.502 4.96-9.027 2.779-13.751l-53.943-116.719c-1.966-4.248-6.094-6.888-10.775-6.888zm3.379 97.469c-1.044-.605-2.212-.906-3.379-.906s-2.335.301-3.379.906l-46.911 27.118 50.29-108.815 50.292 108.815z"/><path stroke="#110B03" stroke-width="6" d="m481.123 87.611h-266.511c-3.729 0-6.754 3.023-6.754 6.754s3.025 6.754 6.754 6.754h266.511c3.729 0 6.754-3.023 6.754-6.754s-3.026-6.754-6.754-6.754z"/><path stroke="#110B03" stroke-width="6" d="m481.123 251.977h-266.511c-3.729 0-6.754 3.023-6.754 6.754s3.025 6.754 6.754 6.754h266.511c3.729 0 6.754-3.023 6.754-6.754-.001-3.731-3.026-6.754-6.754-6.754z"/><path stroke="#110B03" stroke-width="6" d="m481.123 413.146h-266.511c-3.729 0-6.754 3.023-6.754 6.754s3.025 6.754 6.754 6.754h266.511c3.729 0 6.754-3.023 6.754-6.754-.001-3.731-3.026-6.754-6.754-6.754z"/><path stroke="#110B03" stroke-width="6" d="m37.875 326.707h108.452c7.58 0 13.749-6.169 13.749-13.749v-108.453c0-7.582-6.169-13.751-13.749-13.751h-108.452c-7.582 0-13.751 6.169-13.751 13.751v108.452c0 7.581 6.169 13.75 13.751 13.75zm0-122.446h108.452c.132 0 .242.112.242.244l-.241 108.695-108.696-.242z"/><path stroke="#110B03" stroke-width="6" d="m92.1 487.876c37.482 0 67.976-30.495 67.976-67.976s-30.495-67.976-67.976-67.976-67.976 30.494-67.976 67.976 30.495 67.976 67.976 67.976zm0-122.445c30.035 0 54.469 24.434 54.469 54.469s-24.434 54.469-54.469 54.469-54.469-24.434-54.469-54.469 24.434-54.469 54.469-54.469z"/></g></g><g id="Layer_1"/></svg>