<svg clip-rule="evenodd" fill-rule="evenodd" height="32" stroke-linejoin="round" stroke-miterlimit="2" viewBox="0 0 100 100" width="32" xmlns="http://www.w3.org/2000/svg" fill="#CECFD1"><g id="Layer2"><path d="m71.875 53.125c-10.348 0-18.75 8.402-18.75 18.75s8.402 18.75 18.75 18.75 18.75-8.402 18.75-18.75-8.402-18.75-18.75-18.75zm-25.022 3.125c0-1.726-1.399-3.125-3.125-3.125h-25c-2.486 0-4.871.988-6.629 2.746s-2.746 4.143-2.746 6.629v18.75c0 2.486.988 4.871 2.746 6.629s4.143 2.746 6.629 2.746h18.75c2.486 0 4.871-.988 6.629-2.746s2.746-4.143 2.746-6.629c0-9.12 0-25 0-25zm43.772-37.5c0-2.486-.988-4.871-2.746-6.629s-4.143-2.746-6.629-2.746c-5.446 0-13.304 0-18.75 0-2.486 0-4.871.988-6.629 2.746s-2.746 4.143-2.746 6.629v25c0 1.726 1.399 3.125 3.125 3.125h25c2.486 0 4.871-.988 6.629-2.746s2.746-4.143 2.746-6.629zm-43.772 0c0-2.486-.988-4.871-2.746-6.629s-4.143-2.746-6.629-2.746c-5.446 0-13.304 0-18.75 0-2.486 0-4.871.988-6.629 2.746s-2.746 4.143-2.746 6.629v18.75c0 2.486.988 4.871 2.746 6.629s4.143 2.746 6.629 2.746h25c1.726 0 3.125-1.399 3.125-3.125z"/></g></svg>