<svg id="Layer_1" enable-background="new 0 0 512 512" height="512" viewBox="0 0 512 512" width="512" xmlns="http://www.w3.org/2000/svg"><g clip-rule="evenodd" fill-rule="evenodd"><path d="m256 19.5h44.682c2.754 0 5 2.246 5 5v25.398c0 2.754-2.246 5-5 5h-44.682z" fill="#4fc0e8"/><path d="m256 489.5h-210v-338.99h210 210v338.99z" fill="#cad0d7"/><path d="m21.888 160.51h468.225c1.157 0 2.148-.607 2.673-1.638s.434-2.189-.246-3.125l-35.021-48.202c-.583-.802-1.436-1.237-2.427-1.237h-398.184c-.991 0-1.844.435-2.427 1.237l-35.021 48.202c-.68.936-.771 2.094-.246 3.125.526 1.031 1.517 1.638 2.674 1.638z" fill="#f76c82"/><g fill="#a4d4ff"><path d="m393.829 245.646h28.811c2.754 0 5 2.246 5 5v28.811c0 2.754-2.246 5-5 5h-28.811c-2.754 0-5-2.246-5-5v-28.811c.001-2.754 2.247-5 5-5z"/><path d="m393.829 347.525h28.811c2.754 0 5 2.246 5 5v28.811c0 2.754-2.246 5-5 5h-28.811c-2.754 0-5-2.246-5-5v-28.811c.001-2.754 2.247-5 5-5z"/><path d="m89.36 245.646h28.811c2.754 0 5 2.246 5 5v28.811c0 2.754-2.246 5-5 5h-28.811c-2.754 0-5-2.246-5-5v-28.811c0-2.754 2.246-5 5-5z"/><path d="m89.36 347.525h28.811c2.754 0 5 2.246 5 5v28.811c0 2.754-2.246 5-5 5h-28.811c-2.754 0-5-2.246-5-5v-28.811c0-2.754 2.246-5 5-5z"/></g><path d="m263 92.979c0 3.866-3.134 7-7 7s-7-3.134-7-7v-73.479c0-3.866 3.134-7 7-7s7 3.134 7 7z" fill="#937661"/><path d="m256 489.5h210v-63.988h-210-210v63.988z" fill="#a9b0bb"/><path d="m161.53 173.411h188.94v316.088h-188.94z" fill="#e4e8eb"/><path d="m199.473 347.228h113.053c2.754 0 5 2.246 5 5v122.148c0 2.754-2.246 5-5 5h-113.053c-2.754 0-5-2.246-5-5v-122.149c.001-2.753 2.246-4.999 5-4.999z" fill="#a4d4ff"/><path d="m249 347.228h14v132.148h-14z" fill="#99d0fb"/><path d="m199.473 245.646h113.053c2.754 0 5 2.246 5 5v29.348c0 2.754-2.246 5-5 5h-113.053c-2.754 0-5-2.246-5-5v-29.348c.001-2.754 2.246-5 5-5z" fill="#a4d4ff"/><path d="m26 471.101h460c5.508 0 10 4.492 10 10v8.399c0 5.508-4.492 10-10 10h-460c-5.508 0-10-4.492-10-10v-8.399c0-5.508 4.492-10 10-10z" fill="#cad0d7"/><path d="m257.249 88.182 114.669 91.667c.676.54.925 1.407.639 2.224-.286.816-1.022 1.338-1.887 1.338h-229.339c-.865 0-1.601-.522-1.887-1.338s-.037-1.684.639-2.224l114.669-91.667c.738-.59 1.758-.59 2.497 0z" fill="#a9b0bb"/><path d="m256 160.104c10.267 0 18.641-8.374 18.641-18.642 0-10.267-8.374-18.641-18.641-18.641-10.268 0-18.642 8.374-18.642 18.641.001 10.268 8.375 18.642 18.642 18.642z" fill="#cad0d7"/></g></svg>