<?xml version="1.0" encoding="iso-8859-1"?>
<!-- Generator: Adobe Illustrator 19.0.0, SVG Export Plug-In . SVG Version: 6.00 Build 0)  -->
<svg version="1.1" id="Layer_1" xmlns="http://www.w3.org/2000/svg" xmlns:xlink="http://www.w3.org/1999/xlink" x="0px" y="0px"
	 viewBox="0 0 512 512" style="enable-background:new 0 0 512 512;" xml:space="preserve">
<path style="fill:#91DC5A;" d="M229.949,473.762c-57.78,0-121.2-17.164-182.946-50.862c-3.269-1.784-5.852-4.601-7.331-8.016
	c-52.755-121.751-52.896-219.429-0.419-290.338C155.325-32.296,483.159,2.968,497.159,4.578c6.494,0.728,11.959,5.177,13.999,11.378
	c2.039,6.211,0.277,13.031-4.509,17.469l0,0c0.066,0-31.035,38.952-52.959,229.795c-10.099,87.9-49.623,152.087-114.31,185.644
	C307.238,465.538,269.94,473.762,229.949,473.762z"/>
<g>
	<path style="fill:#6DC82A;" d="M506.649,33.425c4.786-4.438,6.548-11.258,4.509-17.469c-0.168-0.513-0.493-0.936-0.71-1.425
		c-90.467,38.364-351.356,178.214-462.012,409.1c61.294,33.184,124.179,50.131,181.512,50.131c39.99,0,77.289-8.223,109.431-24.899
		c64.687-33.557,104.211-97.744,114.31-185.644C475.614,72.377,506.715,33.425,506.649,33.425z"/>
	<path style="fill:#6DC82A;" d="M20.06,511.909c-1.637,0-3.296-0.239-4.943-0.751c-8.816-2.719-13.749-12.074-11.024-20.896
		C94.292,198.63,422.964,35.676,488.381,5.96c8.403-3.785,18.312-0.098,22.119,8.31c3.818,8.397,0.098,18.307-8.305,22.124
		C439.063,65.056,121.997,222.158,36.017,500.14C33.799,507.307,27.19,511.909,20.06,511.909z"/>
	<path style="fill:#6DC82A;" d="M295.796,320.771c-1.191-9.169-9.68-15.63-18.715-14.423c-21.766,2.817-45.19,2.719-69.626-0.294
		c-21.896-2.719-40.458-7.31-52.185-10.682c-10.358-2.981-17.156-5.504-19.134-6.263c-3.485-19.247-4.351-39.205-2.224-59.556
		c2.018-19.285,6.537-38.919,13.444-58.346c3.089-8.691-1.458-18.241-10.148-21.33c-8.707-3.1-18.241,1.447-21.341,10.148
		c-7.788,21.918-12.895,44.14-15.185,66.047c-2.883,27.574-1.273,54.669,4.786,80.536c1.806,7.701,8.669,12.901,16.251,12.901
		c0.173,0,0.351-0.055,0.524-0.06c0.26,0.123,0.486,0.288,0.754,0.397c0.359,0.153,8.892,3.579,23.039,7.635
		c12.868,3.709,33.257,8.746,57.318,11.725c13.983,1.73,27.71,2.589,41.09,2.589c12.65,0,24.991-0.772,36.923-2.317
		C290.52,338.296,296.976,329.919,295.796,320.771z"/>
	<path style="fill:#6DC82A;" d="M338.652,200.011c-11.78,0-23.507-0.979-35.058-2.947c-12.993-2.198-25.448-5.569-37.015-10.007
		c-8.816-3.383-13.917-6.19-14.472-6.505c-4.52-2.534-7.62-7.092-8.376-12.215c0,0-0.674-4.569-1-12.335
		c-0.408-9.724-0.104-19.709,0.919-29.663c1.436-14.021,4.253-27.531,8.376-40.148c2.86-8.778,12.324-13.553,21.069-10.693
		c8.773,2.86,13.559,12.302,10.693,21.069c-3.383,10.355-5.705,21.515-6.896,33.165c-1.066,10.431-1.011,19.275-0.777,24.854
		c0.006,0.109,0.011,0.217,0.017,0.315c0.751,0.304,1.56,0.63,2.415,0.957c6.537,2.502,17.159,5.971,30.642,8.267
		c15.234,2.577,30.832,3.122,46.425,1.664c9.007-0.881,17.334,5.863,18.209,15.055c0.875,9.18-5.869,17.338-15.055,18.209
		C352.064,199.696,345.347,200.011,338.652,200.011z"/>
</g>
<g>
	<path style="fill:#91DC5A;" d="M252.107,180.552c0.555,0.315,5.656,3.122,14.472,6.505c11.568,4.438,24.022,7.81,37.015,10.007
		c11.552,1.969,23.277,2.947,35.058,2.947c6.695,0,13.412-0.315,20.113-0.957c9.186-0.87,15.93-9.028,15.055-18.209
		c-0.875-9.191-9.203-15.936-18.209-15.055c-15.593,1.458-31.191,0.913-46.425-1.664c-13.482-2.296-24.105-5.765-30.642-8.267
		c-0.482-0.185-0.913-0.359-1.366-0.541c-9.463,7.331-18.924,14.919-28.362,22.766C249.808,179.029,250.895,179.872,252.107,180.552
		z"/>
	<path style="fill:#91DC5A;" d="M277.081,306.348c-21.766,2.817-45.19,2.719-69.626-0.294c-21.896-2.719-40.458-7.31-52.185-10.682
		c-10.143-2.918-16.806-5.373-18.938-6.19c-7.675,9.161-15.149,18.543-22.407,28.129c2.389,1.289,4.988,2.198,7.794,2.198
		c0.173,0,0.351-0.055,0.524-0.06c0.26,0.122,0.486,0.288,0.754,0.397c0.359,0.153,8.892,3.579,23.039,7.635
		c12.868,3.709,33.257,8.746,57.318,11.725c13.983,1.73,27.71,2.589,41.09,2.589c12.65,0,24.991-0.772,36.923-2.317
		c9.154-1.185,15.609-9.561,14.429-18.709C294.604,311.602,286.114,305.141,277.081,306.348z"/>
</g>
<g>
</g>
<g>
</g>
<g>
</g>
<g>
</g>
<g>
</g>
<g>
</g>
<g>
</g>
<g>
</g>
<g>
</g>
<g>
</g>
<g>
</g>
<g>
</g>
<g>
</g>
<g>
</g>
<g>
</g>
</svg>
