<?xml version="1.0" encoding="iso-8859-1"?>
<!-- Generator: Adobe Illustrator 19.0.0, SVG Export Plug-In . SVG Version: 6.00 Build 0)  -->
<svg version="1.1" id="Capa_1" xmlns="http://www.w3.org/2000/svg" xmlns:xlink="http://www.w3.org/1999/xlink" x="0px" y="0px"
	 viewBox="0 0 436.907 436.907" style="enable-background:new 0 0 436.907 436.907;" xml:space="preserve">
<circle style="fill:#EFC84A;" cx="218.453" cy="218.453" r="218.453"/>
<path style="opacity:0.1;enable-background:new    ;" d="M93.78,221.923l15.237,15.237v63.759l8.192,8.192v1.126
	c0,3.107,1.203,5.902,3.132,8.022l-0.025,0.013l0.202,0.202c0.131,0.138,0.265,0.271,0.402,0.402l117.113,117.112
	c91.288-8.115,166.381-72.357,190.595-158.004L271.487,120.844c-0.842-0.938-1.731-1.827-2.669-2.669l-0.001-0.001
	c-6.157-5.525-14.27-8.913-23.198-8.913h-95.847c-22.493,0-40.755,18.227-40.755,40.755v26.692h-8.124
	c-5.769,0-10.445,4.676-10.445,10.445v27.136c0,3.022,1.303,5.723,3.355,7.63L93.78,221.923z"/>
<path style="fill:#64798A;" d="M147.829,322.2h-18.682c-6.598,0-11.947-5.349-11.947-11.947v-16.437h42.576v16.437
	C159.775,316.851,154.427,322.2,147.829,322.2z"/>
<path style="fill:#44C4A1;" d="M280.406,300.912H109.012V150.024c0-22.519,18.256-40.775,40.775-40.775h95.818
	c19.22,0,34.802,15.581,34.802,34.802V300.912z"/>
<rect x="155.409" y="127.317" style="fill:#D5D6DB;" width="84.606" height="16.92"/>
<circle style="fill:#FCD462;" cx="149.951" cy="263.441" r="16.374"/>
<g>
	<path style="fill:#3EA69B;" d="M110.649,224.731h-9.743c-5.773,0-10.453-4.68-10.453-10.453V187.15
		c0-5.773,4.68-10.453,10.453-10.453h9.743V224.731z"/>
	<path style="fill:#3EA69B;" d="M280.406,224.731h9.743c5.773,0,10.453-4.68,10.453-10.453V187.15
		c0-5.773-4.68-10.453-10.453-10.453h-9.743V224.731z"/>
</g>
<rect x="133.564" y="166.636" style="fill:#F6C358;" width="126.089" height="68.229"/>
<polygon style="fill:#FCD462;" points="133.575,234.865 133.575,166.635 259.664,166.635 "/>
<g>
	<path style="fill:#64798A;" d="M241.906,327.658h-8.151c-6.19,0-11.208-5.018-11.208-11.208v-8.442h30.567v8.442
		C253.114,322.64,248.096,327.658,241.906,327.658z"/>
	<path style="fill:#64798A;" d="M316.505,327.658h-8.151c-6.19,0-11.208-5.018-11.208-11.208v-8.442h30.567v8.442
		C327.713,322.64,322.695,327.658,316.505,327.658z"/>
</g>
<g>
	<path style="fill:#D15241;" d="M342.293,276.076h-12.488v-11.463h12.488c2.298,0,4.16,1.862,4.16,4.16v3.143
		C346.453,274.214,344.591,276.076,342.293,276.076z"/>
	<path style="fill:#D15241;" d="M210.059,276.076h12.488v-11.463h-12.488c-2.298,0-4.16,1.862-4.16,4.16v3.143
		C205.899,274.214,207.761,276.076,210.059,276.076z"/>
</g>
<path style="fill:#E56353;" d="M331.716,311.283H220.364V259.65c0-17.909,14.518-32.427,32.427-32.427h46.498
	c17.909,0,32.427,14.518,32.427,32.427V311.283z"/>
<path style="fill:#2D93BA;" d="M232.736,269.253h86.789c0,0,3.541-18.717-13.239-32.775c-1.289-1.08-2.96-1.613-4.642-1.613H251.48
	c-1.974,0-3.85,0.781-5.254,2.167C241.135,242.057,229.745,255.153,232.736,269.253z"/>
<rect x="196.608" y="127.317" style="fill:#E1E6E9;" width="43.394" height="16.92"/>
<path style="fill:#27A2DB;" d="M232.736,269.253c-2.991-14.1,8.4-27.196,13.49-32.221c1.405-1.387,3.281-2.167,5.254-2.167h50.164
	c1.682,0,3.353,0.533,4.642,1.613L232.736,269.253z"/>
<g>
	<circle style="fill:#FCD462;" cx="245.432" cy="287.812" r="9.503"/>
	<circle style="fill:#FCD462;" cx="302.933" cy="287.812" r="9.503"/>
</g>
<g>
</g>
<g>
</g>
<g>
</g>
<g>
</g>
<g>
</g>
<g>
</g>
<g>
</g>
<g>
</g>
<g>
</g>
<g>
</g>
<g>
</g>
<g>
</g>
<g>
</g>
<g>
</g>
<g>
</g>
</svg>
